<svg version="1.1" id="Layer_1" xmlns="http://www.w3.org/2000/svg" xmlns:xlink="http://www.w3.org/1999/xlink" x="0px" y="0px"
	 width="100%" viewBox="0 0 1320 1000" enable-background="new 0 0 1320 1000" xml:space="preserve">
<path fill="#FFFFFF" opacity="1.000000" stroke="none" 
	d="
M807.000000,1001.000000 
	C538.000000,1001.000000 269.500000,1001.000000 1.000000,1001.000000 
	C1.000000,667.666687 1.000000,334.333344 1.000000,1.000000 
	C441.000000,1.000000 881.000000,1.000000 1321.000000,1.000000 
	C1321.000000,334.333344 1321.000000,667.666687 1321.000000,1001.000000 
	C1149.833374,1001.000000 978.666687,1001.000000 807.000000,1001.000000 
M638.056580,139.202805 
	C621.018494,139.263840 603.980347,139.324890 586.026184,139.225723 
	C565.221497,139.198914 544.416809,139.162079 523.612122,139.149261 
	C512.153442,139.142197 508.132141,143.243149 508.131714,154.883453 
	C508.129700,208.310471 508.129974,261.737488 508.134766,315.164490 
	C508.134918,316.827576 508.039673,318.510590 508.252411,320.150146 
	C509.044891,326.258606 513.511230,330.772736 519.548584,330.793610 
	C541.346802,330.868958 563.145874,330.697235 585.866333,330.824768 
	C590.287415,330.824768 594.708496,330.824768 598.931946,330.824768 
	C598.931946,337.912506 598.931946,344.146454 598.931946,350.734375 
	C592.362854,350.734375 586.204712,350.461945 580.099548,350.911163 
	C578.410522,351.035431 576.879395,353.306183 575.275818,354.592133 
	C576.894775,355.688873 578.506104,357.724976 580.133911,357.738251 
	C598.080200,357.884827 616.028931,357.716888 634.900208,357.824921 
	C650.253662,357.767212 665.607056,357.709473 681.768127,357.842438 
	C682.254639,357.861603 682.856934,358.075745 683.208374,357.867218 
	C685.062256,356.766937 686.852905,355.560059 688.665527,354.390167 
	C686.899292,353.137695 685.194702,351.778625 683.328003,350.700104 
	C682.793518,350.391327 681.789978,350.894470 680.073364,350.891418 
	C674.855957,350.891418 669.638489,350.891418 664.448181,350.891418 
	C664.448181,343.804779 664.448181,337.585724 664.448181,330.649261 
	C670.143860,330.649261 675.557373,330.649261 681.891968,330.844727 
	C688.282776,330.844727 694.673645,330.844727 701.311035,330.844727 
	C701.311035,333.591736 701.311035,335.410522 701.311096,337.229279 
	C701.311096,353.837921 701.244446,370.446930 701.333801,387.055084 
	C701.397156,398.824371 707.850342,405.156097 719.599426,405.155487 
	C729.063843,405.154999 738.528198,405.057465 748.730591,405.326843 
	C755.046936,405.376740 761.363220,405.471466 767.679565,405.467377 
	C781.375366,405.458527 787.465210,399.368042 787.469604,385.697876 
	C787.479553,354.431152 787.037292,323.155884 787.653503,291.901306 
	C787.969360,275.881592 781.855713,267.445160 763.976990,268.992615 
	C763.646057,269.021240 763.317810,269.079437 762.093506,269.014832 
	C760.158936,269.014832 758.224365,269.014832 755.887756,269.014832 
	C755.887756,266.563965 755.887695,264.759521 755.887695,262.955109 
	C755.887695,227.464462 755.850037,191.973755 755.925476,156.483261 
	C755.937805,150.687057 755.830322,145.087326 750.933044,141.385574 
	C754.804199,134.524551 758.887939,128.231232 761.898376,121.460732 
	C763.015747,118.947906 762.740356,114.156235 761.050598,112.519035 
	C759.342590,110.864120 754.431641,110.600258 752.084595,111.871048 
	C744.398132,116.032837 737.239868,121.170227 729.242249,126.142677 
	C725.131836,129.510788 721.198975,133.136490 716.838013,136.140869 
	C714.576782,137.698746 711.597168,138.824112 708.873718,138.984482 
	C701.257874,139.432953 693.606384,139.276855 685.048706,139.199341 
	C669.690674,139.258209 654.332703,139.317093 638.056580,139.202805 
M280.941650,668.570557 
	C301.539398,703.158936 331.795288,721.959045 372.189575,722.375671 
	C413.780396,722.804749 451.858612,696.681152 467.917480,658.196716 
	C485.078827,617.070312 474.356720,571.383972 440.305542,540.543518 
	C399.313965,503.417084 333.929077,506.714020 296.311584,547.295593 
	C265.437988,580.601990 259.034149,629.084961 280.941650,668.570557 
M650.992249,669.542053 
	C657.628845,685.121277 664.158081,700.748047 671.018372,716.228149 
	C672.042175,718.538330 674.362244,721.295349 676.550537,721.794495 
	C678.969299,722.346191 682.488403,721.234741 684.520325,719.597046 
	C687.733398,717.007568 687.127319,713.265747 685.538757,709.556885 
	C669.980286,673.231689 654.501953,636.872131 639.034729,600.507935 
	C627.600952,573.626404 616.216187,546.723999 604.812805,519.829590 
	C603.106689,515.805786 601.002808,512.527283 595.778809,512.764038 
	C590.963013,512.982239 589.460205,516.324158 587.917175,519.939575 
	C566.613831,569.854919 545.287537,619.760376 523.970581,669.669922 
	C518.164673,683.263184 512.396912,696.872864 506.554138,710.450317 
	C504.999146,714.063782 505.172272,717.649719 508.230011,719.948120 
	C510.207581,721.434631 513.769287,722.635559 515.756165,721.830261 
	C518.285645,720.805054 520.676270,717.951782 521.853699,715.317566 
	C529.436646,698.351196 536.671753,681.229370 544.024109,664.151489 
	C579.043152,664.151489 613.836487,664.151489 648.584473,664.151489 
	C649.340027,665.790161 650.033081,667.293213 650.992249,669.542053 
M765.404480,705.555969 
	C748.153748,702.518311 733.183472,687.375488 732.472168,666.961365 
	C732.249634,660.575867 728.799622,657.441284 723.626770,657.939941 
	C718.778931,658.407166 716.169006,662.070068 716.452637,668.008423 
	C717.661072,693.306519 735.688110,715.330750 759.773071,720.934448 
	C784.735596,726.742371 810.419434,715.082031 822.744934,692.345520 
	C832.958923,673.504028 831.524902,649.695740 819.297485,635.036865 
	C809.871338,623.736328 796.956543,618.152344 783.705627,612.937256 
	C771.992676,608.327454 760.237000,603.694702 748.976990,598.110535 
	C741.098450,594.203430 735.074585,587.883667 733.191040,578.603638 
	C728.925720,557.588989 742.895874,536.219421 764.132751,531.390686 
	C784.889038,526.671204 806.854980,540.085632 811.877441,560.711609 
	C812.735657,564.236145 812.747070,567.959717 813.284424,571.571350 
	C813.967834,576.165283 817.669312,579.266907 821.866028,578.918823 
	C826.221802,578.557617 829.484985,575.078003 829.415955,570.495300 
	C829.368469,567.343750 829.165833,564.149231 828.584778,561.058044 
	C823.449402,533.736023 799.706909,515.499268 774.776611,514.531311 
	C751.080200,513.611328 727.117737,529.079285 719.379944,553.080566 
	C714.066895,569.560852 714.104187,585.932312 726.114441,600.198425 
	C734.995361,610.747498 747.059448,616.273376 759.572388,621.090515 
	C770.398132,625.258057 781.489258,628.927307 791.862610,634.036072 
	C809.567810,642.755798 815.991760,656.810242 812.365601,674.481995 
	C808.716187,692.266785 790.508301,709.232605 765.404480,705.555969 
M1026.548462,542.963745 
	C1033.818848,550.673828 1037.480957,559.856445 1037.964355,570.416321 
	C1038.213379,575.857666 1041.630737,579.184021 1046.315796,578.904785 
	C1051.022217,578.624207 1054.181274,575.057617 1053.943848,569.679626 
	C1053.768921,565.719177 1053.406250,561.683472 1052.439209,557.855103 
	C1045.978760,532.278259 1025.079590,515.675415 998.166870,514.508179 
	C974.577881,513.485046 951.176086,529.732117 943.812988,553.744751 
	C936.266846,578.354126 942.048950,598.231140 964.253845,611.468628 
	C971.463013,615.766479 979.529968,618.637695 987.242859,622.075684 
	C999.031494,627.330505 1011.110413,632.011292 1022.566040,637.907471 
	C1029.604980,641.530334 1034.581421,647.844177 1036.687012,655.873108 
	C1041.620361,674.684753 1032.105225,694.370178 1014.125244,702.578247 
	C996.282593,710.723572 975.056030,704.815552 964.148682,688.711121 
	C959.436401,681.753723 957.378967,674.038757 956.971802,665.712585 
	C956.736206,660.894592 953.353088,657.840881 948.995117,657.882812 
	C944.403503,657.927002 941.165649,661.284485 941.011902,666.278015 
	C940.955627,668.104736 940.996094,669.951538 941.197510,671.766479 
	C943.767761,694.926086 961.098816,714.899963 983.645874,720.740479 
	C1006.213318,726.586243 1030.352905,717.210510 1044.093994,697.678467 
	C1057.273682,678.944702 1059.237061,647.133545 1038.973999,629.758118 
	C1029.049927,621.248230 1017.393005,616.208130 1005.260681,611.942749 
	C992.735107,607.539185 980.071411,603.405640 969.256714,595.286255 
	C963.496582,590.961548 959.203125,585.739014 957.838013,578.368835 
	C954.684937,561.345032 962.960815,543.687927 978.210449,535.294617 
	C993.634033,526.805603 1012.621094,529.647888 1026.548462,542.963745 
M876.991943,695.499878 
	C877.015869,701.830505 876.787537,708.174927 877.133301,714.487976 
	C877.493408,721.063721 883.965820,724.471130 889.363464,721.266113 
	C892.893250,719.170288 893.216064,715.856445 893.213257,712.183472 
	C893.165894,649.703552 893.179382,587.223694 893.179077,524.743774 
	C893.179077,523.910706 893.223633,523.074341 893.165710,522.245178 
	C892.853455,517.777161 890.401062,515.217896 886.016113,514.691223 
	C881.706421,514.173523 878.066406,516.817505 877.272461,521.076477 
	C876.910278,523.018860 877.002258,525.058350 877.001831,527.053833 
	C876.989624,582.869202 876.992004,638.684570 876.991943,695.499878 
M426.457520,780.730530 
	C425.535645,781.868591 424.179810,782.868652 423.766449,784.168457 
	C421.903320,790.026978 420.307251,795.970520 418.614929,801.883423 
	C415.829498,795.855225 414.116974,789.831116 412.109985,783.906738 
	C411.687256,782.658936 409.905701,780.758545 409.237396,780.941223 
	C407.897308,781.307434 406.587769,782.727600 405.830353,784.038940 
	C404.936981,785.585632 404.615845,787.469910 404.091919,789.221436 
	C402.810669,793.504517 401.555481,797.795471 400.289795,802.083252 
	C397.561096,795.729736 395.993469,789.604492 394.019287,783.613220 
	C393.572388,782.256958 391.712769,781.366272 390.503448,780.261292 
	C390.123352,780.633423 389.743256,781.005615 389.363159,781.377747 
	C391.915863,790.135681 394.409607,798.911865 397.106598,807.625122 
	C397.396820,808.562805 398.861023,809.704224 399.793396,809.715698 
	C400.716278,809.726990 402.100342,808.614624 402.500214,807.665649 
	C403.527069,805.228699 404.114197,802.607056 404.888367,800.062744 
	C406.086426,796.125305 407.293854,792.190796 408.497284,788.255005 
	C411.533875,794.739258 413.277557,800.980469 415.296112,807.131348 
	C415.658936,808.237000 417.132019,809.646301 418.134796,809.680664 
	C419.084961,809.713135 420.644531,808.298401 420.983490,807.220520 
	C423.476288,799.293640 425.769684,791.302551 427.991211,783.294312 
	C428.190369,782.576416 427.436249,781.594055 426.457520,780.730530 
M802.973206,798.583313 
	C804.837769,801.339539 806.862122,804.003357 808.522522,806.877502 
	C810.231140,809.835205 812.373352,810.642578 815.598633,809.244263 
	C815.598633,799.873962 815.598633,790.603882 815.598633,781.255432 
	C812.767029,780.111084 811.519958,780.764282 811.579895,783.909241 
	C811.698242,790.122070 811.614807,796.338806 811.614807,802.553894 
	C806.210693,796.569580 801.863098,790.368652 797.837585,783.965210 
	C795.930481,780.931641 793.758850,779.931091 790.183472,781.350342 
	C790.183472,789.814331 790.225586,798.280701 790.161438,806.746277 
	C790.137939,809.853271 791.378479,810.546570 794.624878,809.059448 
	C794.624878,802.172607 794.624878,795.167480 794.624878,788.162292 
	C794.961121,788.072632 795.297424,787.982910 795.633667,787.893250 
	C797.946899,791.255737 800.260071,794.618164 802.973206,798.583313 
M675.820618,784.324890 
	C670.530701,790.991516 670.109558,799.298828 674.774353,804.963928 
	C679.308899,810.470825 690.005981,812.485779 696.405762,808.947327 
	C697.169739,808.524902 698.121948,807.570618 698.149353,806.831726 
	C698.312927,802.429871 698.230286,798.018921 698.230286,793.704712 
	C687.831726,792.823669 687.790100,792.839844 688.581238,797.085449 
	C690.334839,797.273499 692.088440,797.461609 695.069702,797.781372 
	C693.984131,800.919373 693.850891,804.773438 692.080139,805.798584 
	C685.784180,809.443054 677.090149,804.526123 676.070251,797.296326 
	C675.449951,792.899292 676.465698,788.916504 680.076904,786.083069 
	C683.699341,783.240906 687.853638,783.162048 691.865112,785.050354 
	C694.295105,786.194153 696.087219,786.899902 697.065979,783.637451 
	C690.436584,778.472534 683.684692,778.583252 675.820618,784.324890 
M520.928589,780.715210 
	C519.720093,781.419983 517.480408,782.096619 517.460266,782.833862 
	C517.217651,791.721069 517.303223,800.617249 517.303223,809.871399 
	C521.098145,809.871399 524.229797,810.001831 527.346252,809.839722 
	C531.636047,809.616577 535.700989,808.724854 537.330688,803.977539 
	C538.862915,799.514221 536.510132,796.580139 534.394897,795.310730 
	C535.001160,791.291260 536.328247,788.080750 535.700317,785.313904 
	C534.813232,781.405273 530.996155,780.654053 527.280212,780.712830 
	C525.456848,780.741638 523.632751,780.716064 520.928589,780.715210 
M468.623413,805.949768 
	C463.920258,803.995239 467.622070,800.283875 466.541718,797.570129 
	C479.777557,794.885864 479.777557,794.885864 479.765076,792.749268 
	C475.415222,792.749268 471.050232,792.749268 466.762329,792.749268 
	C466.029663,784.288757 466.029663,784.288513 473.506622,784.285889 
	C475.967316,784.285034 478.428009,784.285767 481.273804,784.285767 
	C481.032928,782.867615 480.897034,781.176575 480.723175,781.172668 
	C474.661804,781.036316 468.596832,781.058899 462.678802,781.058899 
	C462.678802,790.870117 462.678802,800.256836 462.678802,809.886108 
	C468.428925,809.886108 473.754242,810.029968 479.059998,809.771729 
	C480.199982,809.716248 481.269196,808.207214 482.371002,807.367737 
	C482.086670,806.899658 481.802307,806.431580 481.517975,805.963501 
	C477.546570,805.963501 473.575195,805.963501 468.623413,805.949768 
M735.158020,803.368896 
	C735.158020,805.451111 735.158020,807.533325 735.158020,809.887329 
	C741.298462,809.887329 746.621887,810.029968 751.926331,809.775513 
	C753.085388,809.719971 754.176514,808.246948 755.298889,807.426697 
	C755.020752,806.923523 754.742676,806.420288 754.464539,805.917114 
	C749.523315,805.917114 744.582031,805.917114 739.655518,805.917114 
	C739.655518,802.730469 739.655518,800.000549 739.655518,796.889893 
	C742.656433,796.889893 745.298828,796.895813 747.941223,796.888611 
	C753.030029,796.874756 753.030029,796.871704 752.182495,792.698242 
	C748.038208,792.698242 743.799072,792.698242 739.620300,792.698242 
	C738.869324,784.287781 738.869324,784.288086 746.800842,784.285461 
	C748.466187,784.284912 750.198914,784.559509 751.772461,784.178406 
	C752.778381,783.934814 753.548950,782.719727 755.386658,781.084473 
	C747.556763,781.084473 741.498596,781.084473 735.158142,781.084473 
	C735.158142,788.433716 735.158142,795.415649 735.158020,803.368896 
M628.710144,783.839233 
	C626.519348,780.025024 624.362244,779.485718 622.911865,782.597778 
	C618.799500,791.421753 614.946594,800.366638 610.991455,809.263916 
	C611.433716,809.701233 611.875977,810.138611 612.318237,810.575928 
	C613.768005,809.355957 616.006531,808.394592 616.508301,806.863892 
	C617.660156,803.349854 619.630005,802.132996 623.108887,802.611877 
	C624.414001,802.791565 625.784912,802.789856 627.090698,802.612427 
	C630.718201,802.119751 632.945007,803.239868 634.139587,807.022949 
	C634.597473,808.473022 636.893982,809.342651 638.352661,810.476807 
	C639.197388,808.974243 639.247559,808.610779 639.124451,808.320801 
	C635.754883,800.381897 632.367737,792.450500 628.710144,783.839233 
M861.743042,809.970093 
	C867.640991,811.462097 872.793213,810.512634 876.621948,804.868652 
	C874.992493,804.405396 873.227905,804.195496 872.026184,804.919678 
	C867.375244,807.722046 861.747131,807.298523 858.410400,803.570496 
	C854.798706,799.535217 854.545715,792.021851 857.881042,787.848755 
	C861.201721,783.693909 866.358154,782.893799 871.305603,785.351257 
	C872.579224,785.983765 874.434082,785.446289 876.021912,785.446289 
	C876.103271,784.691162 876.184631,783.936035 876.266052,783.180908 
	C873.599304,782.138672 871.010559,780.554443 868.250977,780.157837 
	C860.549011,779.050598 854.086914,783.231140 851.946960,790.164856 
	C849.363586,798.535034 852.558777,805.472839 861.743042,809.970093 
M918.756714,808.629639 
	C922.189331,811.569824 923.035522,809.426636 922.762878,806.353149 
	C922.227051,800.312683 923.410034,794.977905 927.440002,790.218994 
	C929.709412,787.539124 931.374268,784.347290 933.918030,780.458801 
	C924.996704,781.149109 925.315186,789.617554 920.349365,792.754578 
	C918.692078,790.136536 916.926941,787.528015 915.351624,784.809509 
	C913.726379,782.004944 912.199463,779.274963 908.110596,781.388367 
	C912.943298,789.770691 920.906494,796.766174 918.756714,808.629639 
z"/>
<path fill="#151515" opacity="1.000000" stroke="none" 
	d="
M280.773590,668.239990 
	C259.034149,629.084961 265.437988,580.601990 296.311584,547.295593 
	C333.929077,506.714020 399.313965,503.417084 440.305542,540.543518 
	C474.356720,571.383972 485.078827,617.070312 467.917480,658.196716 
	C451.858612,696.681152 413.780396,722.804749 372.189575,722.375671 
	C331.795288,721.959045 301.539398,703.158936 280.773590,668.239990 
M371.506012,530.528015 
	C357.117950,530.654663 343.650421,534.194092 330.849854,540.816711 
	C292.461823,560.677490 274.042542,607.805359 289.059082,648.188110 
	C302.852875,685.282593 337.718445,708.202454 377.249512,706.162476 
	C423.782501,703.761230 461.204834,662.833801 459.952911,616.601746 
	C458.690460,569.982605 420.129211,530.704956 371.506012,530.528015 
z"/>
<path fill="#151515" opacity="1.000000" stroke="none" 
	d="
M650.859253,669.169189 
	C650.033081,667.293213 649.340027,665.790161 648.584473,664.151489 
	C613.836487,664.151489 579.043152,664.151489 544.024109,664.151489 
	C536.671753,681.229370 529.436646,698.351196 521.853699,715.317566 
	C520.676270,717.951782 518.285645,720.805054 515.756165,721.830261 
	C513.769287,722.635559 510.207581,721.434631 508.230011,719.948120 
	C505.172272,717.649719 504.999146,714.063782 506.554138,710.450317 
	C512.396912,696.872864 518.164673,683.263184 523.970581,669.669922 
	C545.287537,619.760376 566.613831,569.854919 587.917175,519.939575 
	C589.460205,516.324158 590.963013,512.982239 595.778809,512.764038 
	C601.002808,512.527283 603.106689,515.805786 604.812805,519.829590 
	C616.216187,546.723999 627.600952,573.626404 639.034729,600.507935 
	C654.501953,636.872131 669.980286,673.231689 685.538757,709.556885 
	C687.127319,713.265747 687.733398,717.007568 684.520325,719.597046 
	C682.488403,721.234741 678.969299,722.346191 676.550537,721.794495 
	C674.362244,721.295349 672.042175,718.538330 671.018372,716.228149 
	C664.158081,700.748047 657.628845,685.121277 650.859253,669.169189 
M596.500000,647.992859 
	C611.370605,647.992859 626.241272,647.992859 641.818604,647.992859 
	C626.538757,612.093323 611.623291,577.049622 596.349365,541.163940 
	C581.017578,577.191772 566.029785,612.411194 550.887817,647.992859 
	C566.179993,647.992859 580.839966,647.992859 596.500000,647.992859 
z"/>
<path fill="#151515" opacity="1.000000" stroke="none" 
	d="
M765.827637,705.661377 
	C790.508301,709.232605 808.716187,692.266785 812.365601,674.481995 
	C815.991760,656.810242 809.567810,642.755798 791.862610,634.036072 
	C781.489258,628.927307 770.398132,625.258057 759.572388,621.090515 
	C747.059448,616.273376 734.995361,610.747498 726.114441,600.198425 
	C714.104187,585.932312 714.066895,569.560852 719.379944,553.080566 
	C727.117737,529.079285 751.080200,513.611328 774.776611,514.531311 
	C799.706909,515.499268 823.449402,533.736023 828.584778,561.058044 
	C829.165833,564.149231 829.368469,567.343750 829.415955,570.495300 
	C829.484985,575.078003 826.221802,578.557617 821.866028,578.918823 
	C817.669312,579.266907 813.967834,576.165283 813.284424,571.571350 
	C812.747070,567.959717 812.735657,564.236145 811.877441,560.711609 
	C806.854980,540.085632 784.889038,526.671204 764.132751,531.390686 
	C742.895874,536.219421 728.925720,557.588989 733.191040,578.603638 
	C735.074585,587.883667 741.098450,594.203430 748.976990,598.110535 
	C760.237000,603.694702 771.992676,608.327454 783.705627,612.937256 
	C796.956543,618.152344 809.871338,623.736328 819.297485,635.036865 
	C831.524902,649.695740 832.958923,673.504028 822.744934,692.345520 
	C810.419434,715.082031 784.735596,726.742371 759.773071,720.934448 
	C735.688110,715.330750 717.661072,693.306519 716.452637,668.008423 
	C716.169006,662.070068 718.778931,658.407166 723.626770,657.939941 
	C728.799622,657.441284 732.249634,660.575867 732.472168,666.961365 
	C733.183472,687.375488 748.153748,702.518311 765.827637,705.661377 
z"/>
<path fill="#151515" opacity="1.000000" stroke="none" 
	d="
M1026.293945,542.709106 
	C1012.621094,529.647888 993.634033,526.805603 978.210449,535.294617 
	C962.960815,543.687927 954.684937,561.345032 957.838013,578.368835 
	C959.203125,585.739014 963.496582,590.961548 969.256714,595.286255 
	C980.071411,603.405640 992.735107,607.539185 1005.260681,611.942749 
	C1017.393005,616.208130 1029.049927,621.248230 1038.973999,629.758118 
	C1059.237061,647.133545 1057.273682,678.944702 1044.093994,697.678467 
	C1030.352905,717.210510 1006.213318,726.586243 983.645874,720.740479 
	C961.098816,714.899963 943.767761,694.926086 941.197510,671.766479 
	C940.996094,669.951538 940.955627,668.104736 941.011902,666.278015 
	C941.165649,661.284485 944.403503,657.927002 948.995117,657.882812 
	C953.353088,657.840881 956.736206,660.894592 956.971802,665.712585 
	C957.378967,674.038757 959.436401,681.753723 964.148682,688.711121 
	C975.056030,704.815552 996.282593,710.723572 1014.125244,702.578247 
	C1032.105225,694.370178 1041.620361,674.684753 1036.687012,655.873108 
	C1034.581421,647.844177 1029.604980,641.530334 1022.566040,637.907471 
	C1011.110413,632.011292 999.031494,627.330505 987.242859,622.075684 
	C979.529968,618.637695 971.463013,615.766479 964.253845,611.468628 
	C942.048950,598.231140 936.266846,578.354126 943.812988,553.744751 
	C951.176086,529.732117 974.577881,513.485046 998.166870,514.508179 
	C1025.079590,515.675415 1045.978760,532.278259 1052.439209,557.855103 
	C1053.406250,561.683472 1053.768921,565.719177 1053.943848,569.679626 
	C1054.181274,575.057617 1051.022217,578.624207 1046.315796,578.904785 
	C1041.630737,579.184021 1038.213379,575.857666 1037.964355,570.416321 
	C1037.480957,559.856445 1033.818848,550.673828 1026.293945,542.709106 
z"/>
<path fill="#151515" opacity="1.000000" stroke="none" 
	d="
M876.991943,694.999878 
	C876.992004,638.684570 876.989624,582.869202 877.001831,527.053833 
	C877.002258,525.058350 876.910278,523.018860 877.272461,521.076477 
	C878.066406,516.817505 881.706421,514.173523 886.016113,514.691223 
	C890.401062,515.217896 892.853455,517.777161 893.165710,522.245178 
	C893.223633,523.074341 893.179077,523.910706 893.179077,524.743774 
	C893.179382,587.223694 893.165894,649.703552 893.213257,712.183472 
	C893.216064,715.856445 892.893250,719.170288 889.363464,721.266113 
	C883.965820,724.471130 877.493408,721.063721 877.133301,714.487976 
	C876.787537,708.174927 877.015869,701.830505 876.991943,694.999878 
z"/>
<path fill="#F0493C" opacity="1.000000" stroke="none" 
	d="
M584.944580,330.618805 
	C563.145874,330.697235 541.346802,330.868958 519.548584,330.793610 
	C513.511230,330.772736 509.044891,326.258606 508.252411,320.150146 
	C508.039673,318.510590 508.134918,316.827576 508.134766,315.164490 
	C508.129974,261.737488 508.129700,208.310471 508.131714,154.883453 
	C508.132141,143.243149 512.153442,139.142197 523.612122,139.149261 
	C544.416809,139.162079 565.221497,139.198914 586.492920,139.675766 
	C587.298218,142.064957 587.636841,144.004120 587.514282,146.017502 
	C565.911438,146.118225 544.769775,146.142319 523.628113,146.172546 
	C516.182556,146.183197 515.181580,147.149826 515.180786,154.391327 
	C515.176025,197.840225 515.178406,241.289139 515.178406,284.738037 
	C515.178406,286.358612 515.178406,287.979187 515.178406,290.378082 
	C535.440308,290.378082 555.195374,290.378082 574.959167,290.779602 
	C574.969849,293.067169 574.971802,294.953186 574.510132,296.897949 
	C554.507324,296.956665 534.968140,296.956665 515.178406,296.956665 
	C515.178406,303.924683 515.163086,310.062042 515.182556,316.199249 
	C515.203369,322.770599 516.420654,323.968689 523.103271,323.990143 
	C543.724854,324.056305 564.346497,324.110016 584.975342,324.573944 
	C584.969910,326.859192 584.957275,328.738983 584.944580,330.618805 
z"/>
<path fill="#F89447" opacity="1.000000" stroke="none" 
	d="
M747.992615,405.002991 
	C738.528198,405.057465 729.063843,405.154999 719.599426,405.155487 
	C707.850342,405.156097 701.397156,398.824371 701.333801,387.055084 
	C701.244446,370.446930 701.311096,353.837921 701.311096,337.229279 
	C701.311035,335.410522 701.311035,333.591736 701.311035,330.844727 
	C694.673645,330.844727 688.282776,330.844727 681.437378,330.343872 
	C680.982361,327.944183 680.981934,326.045380 681.446655,324.074646 
	C688.296082,324.002716 694.680298,324.002716 701.008057,324.002716 
	C701.008057,314.607239 701.008057,306.057526 701.008057,296.859131 
	C691.469299,296.859131 682.227600,296.859131 672.993896,296.450195 
	C672.992859,294.144287 672.983765,292.247314 673.435303,290.253326 
	C682.942078,290.156311 691.988220,290.156311 701.074402,290.156311 
	C701.191406,288.275665 701.254395,287.287689 701.314087,286.299530 
	C701.993469,275.054688 708.320068,269.022858 719.537842,268.995880 
	C724.021973,268.985107 728.506409,269.088715 732.994263,269.560181 
	C732.995483,271.940033 732.993042,273.899902 732.526733,275.919647 
	C728.088867,275.991089 724.114929,276.003174 720.140930,276.014130 
	C710.775330,276.039978 707.394897,280.270264 709.330261,289.543335 
	C709.469727,289.632629 709.608459,289.798920 709.748779,289.800201 
	C722.491150,289.917358 735.233643,290.021912 747.987488,290.548828 
	C747.991455,292.938385 747.984070,294.906372 747.512451,296.926270 
	C734.445129,296.978210 721.842102,296.978210 709.137329,296.978210 
	C709.137329,324.030090 709.137329,350.505005 709.137329,377.751221 
	C716.041138,377.751221 722.496704,377.751221 728.970154,378.127319 
	C728.991211,380.331696 728.994263,382.159943 728.533081,384.056091 
	C721.807068,384.123993 715.545288,384.123993 709.415466,384.123993 
	C707.431458,393.900757 710.604187,398.151917 719.642883,398.303070 
	C729.087708,398.460968 738.535339,398.451630 747.985596,398.918152 
	C747.990540,401.214905 747.991577,403.108948 747.992615,405.002991 
z"/>
<path fill="#F9A547" opacity="1.000000" stroke="none" 
	d="
M732.990601,275.859772 
	C732.993042,273.899902 732.995483,271.940033 733.458618,269.494934 
	C738.820312,269.009674 743.721252,269.009674 748.746094,269.009674 
	C748.746094,263.316895 748.768005,258.509430 748.742249,253.702225 
	C748.636475,233.933746 748.432373,214.165375 748.430176,194.396927 
	C748.428650,180.613251 748.770935,166.829514 748.763306,153.045898 
	C748.762207,150.998383 747.678833,148.951447 746.913635,146.262711 
	C739.399902,154.541443 732.739563,161.879883 726.025146,168.830566 
	C724.984985,166.629440 723.998840,164.816086 723.128540,162.689240 
	C735.356750,148.663452 747.713684,135.129944 755.629761,118.190002 
	C746.306641,120.646065 739.752991,127.384026 732.000854,132.013428 
	C731.196167,129.739456 730.537354,127.835999 729.878479,125.932556 
	C737.239868,121.170227 744.398132,116.032837 752.084595,111.871048 
	C754.431641,110.600258 759.342590,110.864120 761.050598,112.519035 
	C762.740356,114.156235 763.015747,118.947906 761.898376,121.460732 
	C758.887939,128.231232 754.804199,134.524551 750.933044,141.385574 
	C755.830322,145.087326 755.937805,150.687057 755.925476,156.483261 
	C755.850037,191.973755 755.887695,227.464462 755.887695,262.955109 
	C755.887695,264.759521 755.887756,266.563965 755.887756,269.014832 
	C758.224365,269.014832 760.158936,269.014832 762.548218,269.490356 
	C762.998230,271.935455 762.993469,273.905060 762.523560,275.929260 
	C752.369202,275.942505 742.679932,275.901123 732.990601,275.859772 
z"/>
<path fill="#FBB251" opacity="1.000000" stroke="none" 
	d="
M762.988647,275.874634 
	C762.993469,273.905060 762.998230,271.935455 762.995605,269.544861 
	C763.317810,269.079437 763.646057,269.021240 763.976990,268.992615 
	C781.855713,267.445160 787.969360,275.881592 787.653503,291.901306 
	C787.037292,323.155884 787.479553,354.431152 787.469604,385.697876 
	C787.465210,399.368042 781.375366,405.458527 767.679565,405.467377 
	C761.363220,405.471466 755.046936,405.376740 748.361572,405.164917 
	C747.991577,403.108948 747.990540,401.214905 748.447449,398.831970 
	C755.897644,398.313141 762.892822,398.398956 769.881409,398.223511 
	C778.352295,398.010864 781.847961,392.880188 779.229675,384.004059 
	C773.266724,384.004059 767.133423,384.004059 761.003601,383.600342 
	C761.000610,381.371307 760.994080,379.545990 761.429138,377.563019 
	C767.800842,377.405396 773.731018,377.405396 779.954712,377.405396 
	C779.954712,350.289551 779.954712,323.953918 779.954712,296.874359 
	C769.156799,296.874359 758.566772,296.874359 747.976685,296.874359 
	C747.984070,294.906372 747.991455,292.938385 748.453979,290.480286 
	C759.173401,289.990173 769.437622,289.990173 779.600586,289.990173 
	C781.326477,280.420258 777.864197,276.097900 768.959473,276.032104 
	C766.968933,276.017395 764.978882,275.929077 762.988647,275.874634 
z"/>
<path fill="#F46D3D" opacity="1.000000" stroke="none" 
	d="
M585.405457,330.721802 
	C584.957275,328.738983 584.969910,326.859192 585.441223,324.496002 
	C601.930054,324.060760 617.960266,324.108887 633.994080,324.562805 
	C633.994690,326.856476 633.991699,328.744293 633.527832,330.717346 
	C624.348694,330.802582 615.630371,330.802582 606.954041,330.802582 
	C606.954041,337.864746 606.954041,344.091644 606.954041,351.041382 
	C616.179749,351.041382 625.087769,351.041382 633.997742,351.456604 
	C633.992126,353.792603 633.984619,355.713348 633.977051,357.634125 
	C616.028931,357.716888 598.080200,357.884827 580.133911,357.738251 
	C578.506104,357.724976 576.894775,355.688873 575.275818,354.592102 
	C576.879395,353.306183 578.410522,351.035431 580.099548,350.911163 
	C586.204712,350.461945 592.362854,350.734375 598.931946,350.734375 
	C598.931946,344.146454 598.931946,337.912506 598.931946,330.824768 
	C594.708496,330.824768 590.287415,330.824768 585.405457,330.721802 
z"/>
<path fill="#F57B40" opacity="1.000000" stroke="none" 
	d="
M634.438599,357.729523 
	C633.984619,355.713348 633.992126,353.792603 634.460388,351.371826 
	C642.288757,350.871857 649.656433,350.871857 657.036499,350.871857 
	C657.036499,343.777771 657.036499,337.567383 657.036499,330.632141 
	C649.142395,330.632141 641.565552,330.632141 633.988770,330.632141 
	C633.991699,328.744293 633.994690,326.856476 634.458862,324.492065 
	C650.273804,324.059174 665.627686,324.102875 680.981506,324.146545 
	C680.981934,326.045380 680.982361,327.944183 680.976807,330.246155 
	C675.557373,330.649261 670.143860,330.649261 664.448181,330.649261 
	C664.448181,337.585724 664.448181,343.804779 664.448181,350.891418 
	C669.638489,350.891418 674.855957,350.891418 680.539062,351.375854 
	C680.990051,353.790741 680.975281,355.721252 680.960510,357.651733 
	C665.607056,357.709473 650.253662,357.767212 634.438599,357.729523 
z"/>
<path fill="#F89447" opacity="1.000000" stroke="none" 
	d="
M729.560364,126.037613 
	C730.537354,127.835999 731.196167,129.739456 731.814697,132.273224 
	C720.185120,143.280518 708.595886,153.657486 696.863770,163.703674 
	C695.780457,161.568375 694.840027,159.763824 694.058105,157.663681 
	C697.837769,154.008224 701.458923,150.648361 705.080139,147.288498 
	C704.774658,146.849365 704.469177,146.410233 704.163635,145.971100 
	C698.105774,145.971100 692.047852,145.971100 685.994080,145.554352 
	C685.988464,143.211502 685.978699,141.285431 685.968994,139.359344 
	C693.606384,139.276855 701.257874,139.432953 708.873718,138.984482 
	C711.597168,138.824112 714.576782,137.698746 716.838013,136.140869 
	C721.198975,133.136490 725.131836,129.510788 729.560364,126.037613 
z"/>
<path fill="#FD7A25" opacity="1.000000" stroke="none" 
	d="
M426.791199,780.732544 
	C427.436249,781.594055 428.190369,782.576416 427.991211,783.294312 
	C425.769684,791.302551 423.476288,799.293640 420.983490,807.220520 
	C420.644531,808.298401 419.084961,809.713135 418.134796,809.680664 
	C417.132019,809.646301 415.658936,808.237000 415.296112,807.131348 
	C413.277557,800.980469 411.533875,794.739258 408.497284,788.255005 
	C407.293854,792.190796 406.086426,796.125305 404.888367,800.062744 
	C404.114197,802.607056 403.527069,805.228699 402.500214,807.665649 
	C402.100342,808.614624 400.716278,809.726990 399.793396,809.715698 
	C398.861023,809.704224 397.396820,808.562805 397.106598,807.625122 
	C394.409607,798.911865 391.915863,790.135681 389.363159,781.377747 
	C389.743256,781.005615 390.123352,780.633423 390.503448,780.261292 
	C391.712769,781.366272 393.572388,782.256958 394.019287,783.613220 
	C395.993469,789.604492 397.561096,795.729736 400.289795,802.083252 
	C401.555481,797.795471 402.810669,793.504517 404.091919,789.221436 
	C404.615845,787.469910 404.936981,785.585632 405.830353,784.038940 
	C406.587769,782.727600 407.897308,781.307434 409.237396,780.941223 
	C409.905701,780.758545 411.687256,782.658936 412.109985,783.906738 
	C414.116974,789.831116 415.829498,795.855225 418.614929,801.883423 
	C420.307251,795.970520 421.903320,790.026978 423.766449,784.168457 
	C424.179810,782.868652 425.535645,781.868591 426.791199,780.732544 
z"/>
<path fill="#FD7A25" opacity="1.000000" stroke="none" 
	d="
M802.773254,798.281982 
	C800.260071,794.618164 797.946899,791.255737 795.633667,787.893250 
	C795.297424,787.982910 794.961121,788.072632 794.624878,788.162292 
	C794.624878,795.167480 794.624878,802.172607 794.624878,809.059448 
	C791.378479,810.546570 790.137939,809.853271 790.161438,806.746277 
	C790.225586,798.280701 790.183472,789.814331 790.183472,781.350342 
	C793.758850,779.931091 795.930481,780.931641 797.837585,783.965210 
	C801.863098,790.368652 806.210693,796.569580 811.614807,802.553894 
	C811.614807,796.338806 811.698242,790.122070 811.579895,783.909241 
	C811.519958,780.764282 812.767029,780.111084 815.598633,781.255432 
	C815.598633,790.603882 815.598633,799.873962 815.598633,809.244263 
	C812.373352,810.642578 810.231140,809.835205 808.522522,806.877502 
	C806.862122,804.003357 804.837769,801.339539 802.773254,798.281982 
z"/>
<path fill="#FD7A25" opacity="1.000000" stroke="none" 
	d="
M676.097351,784.084717 
	C683.684692,778.583252 690.436584,778.472534 697.065979,783.637451 
	C696.087219,786.899902 694.295105,786.194153 691.865112,785.050354 
	C687.853638,783.162048 683.699341,783.240906 680.076904,786.083069 
	C676.465698,788.916504 675.449951,792.899292 676.070251,797.296326 
	C677.090149,804.526123 685.784180,809.443054 692.080139,805.798584 
	C693.850891,804.773438 693.984131,800.919373 695.069702,797.781372 
	C692.088440,797.461609 690.334839,797.273499 688.581421,797.085999 
	C687.790100,792.839844 687.831726,792.823669 698.230286,793.704712 
	C698.230286,798.018921 698.312927,802.429871 698.149353,806.831726 
	C698.121948,807.570618 697.169739,808.524902 696.405762,808.947327 
	C690.005981,812.485779 679.308899,810.470825 674.774353,804.963928 
	C670.109558,799.298828 670.530701,790.991516 676.097351,784.084717 
z"/>
<path fill="#F46D3D" opacity="1.000000" stroke="none" 
	d="
M587.975464,145.943268 
	C587.636841,144.004120 587.298218,142.064957 586.950928,139.755875 
	C603.980347,139.324890 621.018494,139.263840 638.521118,139.696960 
	C638.988647,142.112732 638.991699,144.034378 638.531738,146.032730 
	C621.371033,146.054062 604.673279,145.998657 587.975464,145.943268 
z"/>
<path fill="#FD7A25" opacity="1.000000" stroke="none" 
	d="
M521.368774,780.715210 
	C523.632751,780.716064 525.456848,780.741638 527.280212,780.712830 
	C530.996155,780.654053 534.813232,781.405273 535.700317,785.313904 
	C536.328247,788.080750 535.001160,791.291260 534.394897,795.310730 
	C536.510132,796.580139 538.862915,799.514221 537.330688,803.977539 
	C535.700989,808.724854 531.636047,809.616577 527.346252,809.839722 
	C524.229797,810.001831 521.098145,809.871399 517.303223,809.871399 
	C517.303223,800.617249 517.217651,791.721069 517.460266,782.833862 
	C517.480408,782.096619 519.720093,781.419983 521.368774,780.715210 
M521.572937,797.180603 
	C521.572937,800.059570 521.572937,802.938538 521.572937,806.038574 
	C524.367249,806.038574 526.880737,806.624084 528.881775,805.862793 
	C530.644592,805.192261 532.910095,803.063660 532.979065,801.492249 
	C533.049805,799.881897 531.041443,797.363098 529.365784,796.699219 
	C527.252563,795.862122 524.554443,796.501465 521.572937,797.180603 
M523.703308,784.037109 
	C518.774902,786.089722 522.220276,789.611877 521.709045,792.575439 
	C524.351624,792.575439 526.693970,793.112305 528.563965,792.403320 
	C530.024536,791.849487 531.798462,789.737732 531.781128,788.338745 
	C531.763550,786.928101 529.916931,785.236023 528.471985,784.256897 
	C527.546448,783.629578 525.896912,784.070618 523.703308,784.037109 
z"/>
<path fill="#FD7A25" opacity="1.000000" stroke="none" 
	d="
M469.113617,805.956665 
	C473.575195,805.963501 477.546570,805.963501 481.517975,805.963501 
	C481.802307,806.431580 482.086670,806.899658 482.371002,807.367737 
	C481.269196,808.207214 480.199982,809.716248 479.059998,809.771729 
	C473.754242,810.029968 468.428925,809.886108 462.678802,809.886108 
	C462.678802,800.256836 462.678802,790.870117 462.678802,781.058899 
	C468.596832,781.058899 474.661804,781.036316 480.723175,781.172668 
	C480.897034,781.176575 481.032928,782.867615 481.273804,784.285767 
	C478.428009,784.285767 475.967316,784.285034 473.506622,784.285889 
	C466.029663,784.288513 466.029663,784.288757 466.762329,792.749268 
	C471.050232,792.749268 475.415222,792.749268 479.765076,792.749268 
	C479.777557,794.885864 479.777557,794.885864 466.541718,797.570129 
	C467.622070,800.283875 463.920258,803.995239 469.113617,805.956665 
z"/>
<path fill="#FD7A25" opacity="1.000000" stroke="none" 
	d="
M735.158081,802.883240 
	C735.158142,795.415649 735.158142,788.433716 735.158142,781.084473 
	C741.498596,781.084473 747.556763,781.084473 755.386658,781.084473 
	C753.548950,782.719727 752.778381,783.934814 751.772461,784.178406 
	C750.198914,784.559509 748.466187,784.284912 746.800842,784.285461 
	C738.869324,784.288086 738.869324,784.287781 739.620300,792.698242 
	C743.799072,792.698242 748.038208,792.698242 752.182495,792.698242 
	C753.030029,796.871704 753.030029,796.874756 747.941223,796.888611 
	C745.298828,796.895813 742.656433,796.889893 739.655518,796.889893 
	C739.655518,800.000549 739.655518,802.730469 739.655518,805.917114 
	C744.582031,805.917114 749.523315,805.917114 754.464539,805.917114 
	C754.742676,806.420288 755.020752,806.923523 755.298889,807.426697 
	C754.176514,808.246948 753.085388,809.719971 751.926331,809.775513 
	C746.621887,810.029968 741.298462,809.887329 735.158020,809.887329 
	C735.158020,807.533325 735.158020,805.451111 735.158081,802.883240 
z"/>
<path fill="#F57B40" opacity="1.000000" stroke="none" 
	d="
M638.994751,145.955994 
	C638.991699,144.034378 638.988647,142.112732 638.980103,139.783539 
	C654.332703,139.317093 669.690674,139.258209 685.508850,139.279343 
	C685.978699,141.285431 685.988464,143.211502 685.530396,145.621658 
	C669.706665,146.055817 654.350708,146.005905 638.994751,145.955994 
z"/>
<path fill="#FD7A25" opacity="1.000000" stroke="none" 
	d="
M628.846802,784.178528 
	C632.367737,792.450500 635.754883,800.381897 639.124451,808.320801 
	C639.247559,808.610779 639.197388,808.974243 638.352661,810.476807 
	C636.893982,809.342651 634.597473,808.473022 634.139587,807.022949 
	C632.945007,803.239868 630.718201,802.119751 627.090698,802.612427 
	C625.784912,802.789856 624.414001,802.791565 623.108887,802.611877 
	C619.630005,802.132996 617.660156,803.349854 616.508301,806.863892 
	C616.006531,808.394592 613.768005,809.355957 612.318237,810.575928 
	C611.875977,810.138611 611.433716,809.701233 610.991455,809.263916 
	C614.946594,800.366638 618.799500,791.421753 622.911865,782.597778 
	C624.362244,779.485718 626.519348,780.025024 628.846802,784.178528 
M621.474792,795.057861 
	C621.077698,796.287170 620.680664,797.516418 620.244934,798.865356 
	C623.631836,798.865356 626.736145,798.865356 630.452026,798.865356 
	C628.753113,794.528198 627.218811,790.611145 625.367920,785.885986 
	C623.974731,789.217529 622.897400,791.793884 621.474792,795.057861 
z"/>
<path fill="#FD7A25" opacity="1.000000" stroke="none" 
	d="
M861.362671,809.877075 
	C852.558777,805.472839 849.363586,798.535034 851.946960,790.164856 
	C854.086914,783.231140 860.549011,779.050598 868.250977,780.157837 
	C871.010559,780.554443 873.599304,782.138672 876.266052,783.180908 
	C876.184631,783.936035 876.103271,784.691162 876.021912,785.446289 
	C874.434082,785.446289 872.579224,785.983765 871.305603,785.351257 
	C866.358154,782.893799 861.201721,783.693909 857.881042,787.848755 
	C854.545715,792.021851 854.798706,799.535217 858.410400,803.570496 
	C861.747131,807.298523 867.375244,807.722046 872.026184,804.919678 
	C873.227905,804.195496 874.992493,804.405396 876.621948,804.868652 
	C872.793213,810.512634 867.640991,811.462097 861.362671,809.877075 
z"/>
<path fill="#FD7A25" opacity="1.000000" stroke="none" 
	d="
M918.721436,808.210083 
	C920.906494,796.766174 912.943298,789.770691 908.110596,781.388367 
	C912.199463,779.274963 913.726379,782.004944 915.351624,784.809509 
	C916.926941,787.528015 918.692078,790.136536 920.349365,792.754578 
	C925.315186,789.617554 924.996704,781.149109 933.918030,780.458801 
	C931.374268,784.347290 929.709412,787.539124 927.440002,790.218994 
	C923.410034,794.977905 922.227051,800.312683 922.762878,806.353149 
	C923.035522,809.426636 922.189331,811.569824 918.721436,808.210083 
z"/>
<path fill="#F89447" opacity="1.000000" stroke="none" 
	d="
M681.364319,357.747070 
	C680.975281,355.721252 680.990051,353.790741 681.003174,351.442810 
	C681.789978,350.894470 682.793518,350.391327 683.328003,350.700104 
	C685.194702,351.778625 686.899292,353.137695 688.665527,354.390137 
	C686.852905,355.560059 685.062256,356.766937 683.208374,357.867218 
	C682.856934,358.075745 682.254639,357.861603 681.364319,357.747070 
z"/>
<path fill="#FEFEFE" opacity="1.000000" stroke="none" 
	d="
M371.999939,530.527954 
	C420.129211,530.704956 458.690460,569.982605 459.952911,616.601746 
	C461.204834,662.833801 423.782501,703.761230 377.249512,706.162476 
	C337.718445,708.202454 302.852875,685.282593 289.059082,648.188110 
	C274.042542,607.805359 292.461823,560.677490 330.849854,540.816711 
	C343.650421,534.194092 357.117950,530.654663 371.999939,530.527954 
z"/>
<path fill="#FEFEFE" opacity="1.000000" stroke="none" 
	d="
M596.000000,647.992859 
	C580.839966,647.992859 566.179993,647.992859 550.887817,647.992859 
	C566.029785,612.411194 581.017578,577.191772 596.349365,541.163940 
	C611.623291,577.049622 626.538757,612.093323 641.818604,647.992859 
	C626.241272,647.992859 611.370605,647.992859 596.000000,647.992859 
z"/>
<path fill="#FFFEFE" opacity="1.000000" stroke="none" 
	d="
M638.531738,146.032715 
	C654.350708,146.005905 669.706665,146.055817 685.526306,146.038422 
	C692.047852,145.971100 698.105774,145.971100 704.163635,145.971100 
	C704.469177,146.410233 704.774658,146.849365 705.080139,147.288498 
	C701.458923,150.648361 697.837769,154.008224 693.754333,157.793381 
	C678.100891,175.135788 662.590027,191.781662 647.887878,209.113571 
	C642.573730,215.378265 638.739990,222.768051 629.526550,224.795349 
	C619.257751,229.532471 611.374268,236.448761 605.834045,245.941345 
	C603.907532,249.242126 602.376038,252.811295 600.165405,255.901062 
	C594.264771,264.148438 586.749084,269.438660 575.931458,269.047821 
	C566.284241,268.699310 556.609619,268.804291 546.959900,269.112305 
	C545.220459,269.167816 542.341370,270.945129 542.073975,272.330139 
	C541.403564,275.802673 544.431152,276.040161 547.060547,276.034546 
	C575.037292,275.974701 603.014099,275.908936 631.455505,275.915405 
	C644.080139,275.988861 656.243530,276.130585 668.395874,275.828552 
	C670.014160,275.788300 671.576416,273.497009 673.164612,272.248169 
	C671.596252,271.167084 670.043213,269.175751 668.457031,269.149109 
	C655.971863,268.939362 643.480408,269.105072 630.677979,269.093933 
	C629.750916,268.937531 629.136719,268.842377 628.159058,268.690918 
	C629.456238,267.635651 630.280640,266.965027 631.434448,266.188477 
	C641.000244,258.236176 648.618896,249.325333 651.585571,237.131317 
	C651.988831,235.473892 653.471497,233.808426 654.892456,232.716980 
	C660.516785,228.396927 666.315247,224.303711 672.370605,220.010590 
	C692.275024,204.885513 708.982056,186.846420 726.079224,169.218353 
	C732.739563,161.879883 739.399902,154.541443 746.913635,146.262711 
	C747.678833,148.951447 748.762207,150.998383 748.763306,153.045898 
	C748.770935,166.829514 748.428650,180.613251 748.430176,194.396927 
	C748.432373,214.165375 748.636475,233.933746 748.742249,253.702225 
	C748.768005,258.509430 748.746094,263.316895 748.746094,269.009674 
	C743.721252,269.009674 738.820312,269.009674 733.455017,269.074951 
	C728.506409,269.088715 724.021973,268.985107 719.537842,268.995880 
	C708.320068,269.022858 701.993469,275.054688 701.314087,286.299530 
	C701.254395,287.287689 701.191406,288.275665 701.074402,290.156311 
	C691.988220,290.156311 682.942078,290.156311 672.974243,290.174927 
	C654.028748,290.248840 636.004944,290.304169 617.521179,290.275208 
	C603.024353,290.253326 588.987427,290.315704 574.950500,290.378082 
	C555.195374,290.378082 535.440308,290.378082 515.178406,290.378082 
	C515.178406,287.979187 515.178406,286.358612 515.178406,284.738037 
	C515.178406,241.289139 515.176025,197.840225 515.180786,154.391327 
	C515.181580,147.149826 516.182556,146.183197 523.628113,146.172546 
	C544.769775,146.142319 565.911438,146.118225 587.514282,146.017487 
	C604.673279,145.998657 621.371033,146.054062 638.531738,146.032715 
z"/>
<path fill="#FFFEFE" opacity="1.000000" stroke="none" 
	d="
M681.446655,324.074646 
	C665.627686,324.102875 650.273804,324.059174 634.455200,324.086243 
	C617.960266,324.108887 601.930054,324.060760 585.433960,324.090576 
	C564.346497,324.110016 543.724854,324.056305 523.103271,323.990143 
	C516.420654,323.968689 515.203369,322.770599 515.182556,316.199249 
	C515.163086,310.062042 515.178406,303.924683 515.178406,296.956665 
	C534.968140,296.956665 554.507324,296.956665 574.975342,296.974884 
	C589.934387,296.946655 603.964539,296.900208 618.459045,296.923340 
	C636.944275,296.948303 654.965027,296.903717 672.985840,296.859131 
	C682.227600,296.859131 691.469299,296.859131 701.008057,296.859131 
	C701.008057,306.057526 701.008057,314.607239 701.008057,324.002716 
	C694.680298,324.002716 688.296082,324.002716 681.446655,324.074646 
M628.540222,321.588348 
	C630.739624,321.536713 632.939087,321.485077 635.859863,321.318817 
	C641.093079,319.306854 643.821289,315.322937 643.498901,309.897949 
	C643.194397,304.774017 640.535828,300.910950 634.494202,299.218842 
	C632.325867,299.453522 630.157471,299.688202 627.266602,299.935303 
	C622.378235,302.174866 619.962463,306.150787 620.395996,311.343750 
	C620.782898,315.978210 622.926575,319.811615 628.540222,321.588348 
z"/>
<path fill="#F46D3D" opacity="1.000000" stroke="none" 
	d="
M617.994629,296.853760 
	C603.964539,296.900208 589.934387,296.946655 575.439026,296.916168 
	C574.971802,294.953186 574.969849,293.067169 574.959167,290.779602 
	C588.987427,290.315704 603.024353,290.253326 617.526245,290.678589 
	C617.992310,293.062073 617.993469,294.957916 617.994629,296.853760 
z"/>
<path fill="#FFFFFF" opacity="1.000000" stroke="none" 
	d="
M747.512451,296.926270 
	C758.566772,296.874359 769.156799,296.874359 779.954712,296.874359 
	C779.954712,323.953918 779.954712,350.289551 779.954712,377.405396 
	C773.731018,377.405396 767.800842,377.405396 760.980225,377.417969 
	C749.710571,377.537445 739.331421,377.644318 728.952209,377.751221 
	C722.496704,377.751221 716.041138,377.751221 709.137329,377.751221 
	C709.137329,350.505005 709.137329,324.030090 709.137329,296.978210 
	C721.842102,296.978210 734.445129,296.978210 747.512451,296.926270 
z"/>
<path fill="#FFFEFE" opacity="1.000000" stroke="none" 
	d="
M761.000122,384.004059 
	C767.133423,384.004059 773.266724,384.004059 779.229675,384.004059 
	C781.847961,392.880188 778.352295,398.010864 769.881409,398.223511 
	C762.892822,398.398956 755.897644,398.313141 748.443604,398.429260 
	C738.535339,398.451630 729.087708,398.460968 719.642883,398.303070 
	C710.604187,398.151917 707.431458,393.900757 709.415466,384.123993 
	C715.545288,384.123993 721.807068,384.123993 728.997314,384.129883 
	C740.283875,384.091888 750.642029,384.047974 761.000122,384.004059 
M742.997131,395.204437 
	C744.734436,394.377930 747.201416,393.960144 747.968628,392.590332 
	C748.539917,391.570404 747.357849,388.673859 746.121826,387.816223 
	C745.112732,387.115997 742.868835,388.195435 741.172363,388.485809 
	C741.549500,390.657959 741.926636,392.830139 742.997131,395.204437 
z"/>
<path fill="#FFFEFE" opacity="1.000000" stroke="none" 
	d="
M762.523560,275.929260 
	C764.978882,275.929077 766.968933,276.017395 768.959473,276.032104 
	C777.864197,276.097900 781.326477,280.420258 779.600586,289.990173 
	C769.437622,289.990173 759.173401,289.990173 748.442627,290.058716 
	C735.233643,290.021912 722.491150,289.917358 709.748779,289.800201 
	C709.608459,289.798920 709.469727,289.632629 709.330261,289.543335 
	C707.394897,280.270264 710.775330,276.039978 720.140930,276.014130 
	C724.114929,276.003174 728.088867,275.991089 732.526733,275.919647 
	C742.679932,275.901123 752.369202,275.942505 762.523560,275.929260 
M744.004211,279.491333 
	C740.218811,279.469421 736.393066,279.123566 732.668213,279.587708 
	C731.212402,279.769073 729.983337,281.770111 728.651001,282.942352 
	C729.958435,284.139862 731.178101,286.226959 732.589905,286.366302 
	C736.647644,286.766754 740.783020,286.379547 745.772095,286.640106 
	C749.227905,286.657227 752.752502,287.080505 756.109192,286.512238 
	C757.679504,286.246368 758.925598,284.064911 760.318665,282.751648 
	C758.938416,281.600311 757.640564,279.607849 756.161743,279.462921 
	C752.446350,279.098877 748.649048,279.569794 744.004211,279.491333 
z"/>
<path fill="#F57B40" opacity="1.000000" stroke="none" 
	d="
M618.459045,296.923340 
	C617.993469,294.957916 617.992310,293.062073 617.986084,290.762817 
	C636.004944,290.304169 654.028748,290.248840 672.513672,290.271942 
	C672.983765,292.247314 672.992859,294.144287 672.993896,296.450195 
	C654.965027,296.903717 636.944275,296.948303 618.459045,296.923340 
z"/>
<path fill="#F9A547" opacity="1.000000" stroke="none" 
	d="
M761.003601,383.600342 
	C750.642029,384.047974 740.283875,384.091888 729.461548,384.062012 
	C728.994263,382.159943 728.991211,380.331696 728.970154,378.127319 
	C739.331421,377.644318 749.710571,377.537445 760.538696,377.575592 
	C760.994080,379.545990 761.000610,381.371307 761.003601,383.600342 
z"/>
<path fill="#FFFEFE" opacity="1.000000" stroke="none" 
	d="
M697.006714,164.034424 
	C708.595886,153.657486 720.185120,143.280518 731.960510,132.643738 
	C739.752991,127.384026 746.306641,120.646065 755.629761,118.190002 
	C747.713684,135.129944 735.356750,148.663452 722.842407,162.864700 
	C720.411804,165.509644 718.482361,167.770096 716.338806,169.804779 
	C701.225830,184.149780 686.068848,198.448380 670.613403,212.906616 
	C662.038757,219.283554 654.092224,226.014389 643.596436,230.503601 
	C643.966370,228.782272 643.919983,227.895905 644.317932,227.313080 
	C649.713623,219.411621 654.552185,211.021790 660.746338,203.796753 
	C672.415894,190.184937 684.875488,177.250443 697.006714,164.034424 
z"/>
<path fill="#F89447" opacity="1.000000" stroke="none" 
	d="
M670.925903,212.761795 
	C686.068848,198.448380 701.225830,184.149780 716.338806,169.804779 
	C718.482361,167.770096 720.411804,165.509644 722.726501,163.178192 
	C723.998840,164.816086 724.984985,166.629440 726.025208,168.830582 
	C708.982056,186.846420 692.275024,204.885513 672.358521,219.588989 
	C671.658752,217.109436 671.292358,214.935623 670.925903,212.761795 
z"/>
<path fill="#FFFEFE" opacity="1.000000" stroke="none" 
	d="
M633.527832,330.717346 
	C641.565552,330.632141 649.142395,330.632141 657.036499,330.632141 
	C657.036499,337.567383 657.036499,343.777771 657.036499,350.871857 
	C649.656433,350.871857 642.288757,350.871857 634.458435,350.956604 
	C625.087769,351.041382 616.179749,351.041382 606.954041,351.041382 
	C606.954041,344.091644 606.954041,337.864746 606.954041,330.802582 
	C615.630371,330.802582 624.348694,330.802582 633.527832,330.717346 
z"/>
<path fill="#F57B40" opacity="1.000000" stroke="none" 
	d="
M670.613464,212.906647 
	C671.292358,214.935623 671.658752,217.109436 672.037170,219.704834 
	C666.315247,224.303711 660.516785,228.396927 654.892456,232.716980 
	C653.471497,233.808426 651.988831,235.473892 651.585571,237.131317 
	C648.618896,249.325333 641.000244,258.236176 631.404419,265.726746 
	C630.575317,263.321777 630.105530,261.272675 629.796143,258.958801 
	C635.640320,252.560516 641.694153,246.667191 644.087341,237.624130 
	C638.153870,237.953354 636.339417,234.432510 635.675049,229.773987 
	C633.914246,230.365189 632.512939,230.835663 631.081421,230.878723 
	C630.659485,228.536667 630.267822,226.622070 629.876099,224.707458 
	C638.739990,222.768051 642.573730,215.378265 647.887878,209.113571 
	C662.590027,191.781662 678.100891,175.135788 693.595825,158.088989 
	C694.840027,159.763824 695.780457,161.568375 696.863770,163.703674 
	C684.875488,177.250443 672.415894,190.184937 660.746338,203.796753 
	C654.552185,211.021790 649.713623,219.411621 644.317932,227.313080 
	C643.919983,227.895905 643.966370,228.782272 643.596436,230.503601 
	C654.092224,226.014389 662.038757,219.283554 670.613464,212.906647 
z"/>
<path fill="#FFFEFE" opacity="1.000000" stroke="none" 
	d="
M521.840820,796.842163 
	C524.554443,796.501465 527.252563,795.862122 529.365784,796.699219 
	C531.041443,797.363098 533.049805,799.881897 532.979065,801.492249 
	C532.910095,803.063660 530.644592,805.192261 528.881775,805.862793 
	C526.880737,806.624084 524.367249,806.038574 521.572937,806.038574 
	C521.572937,802.938538 521.572937,800.059570 521.840820,796.842163 
z"/>
<path fill="#FFFEFE" opacity="1.000000" stroke="none" 
	d="
M524.137573,784.034912 
	C525.896912,784.070618 527.546448,783.629578 528.471985,784.256897 
	C529.916931,785.236023 531.763550,786.928101 531.781128,788.338745 
	C531.798462,789.737732 530.024536,791.849487 528.563965,792.403320 
	C526.693970,793.112305 524.351624,792.575439 521.709045,792.575439 
	C522.220276,789.611877 518.774902,786.089722 524.137573,784.034912 
z"/>
<path fill="#FFFEFE" opacity="1.000000" stroke="none" 
	d="
M621.647461,794.714050 
	C622.897400,791.793884 623.974731,789.217529 625.367920,785.885986 
	C627.218811,790.611145 628.753113,794.528198 630.452026,798.865356 
	C626.736145,798.865356 623.631836,798.865356 620.244934,798.865356 
	C620.680664,797.516418 621.077698,796.287170 621.647461,794.714050 
z"/>
<path fill="#F46D3D" opacity="1.000000" stroke="none" 
	d="
M629.635803,259.223541 
	C630.105530,261.272675 630.575317,263.321777 631.075012,265.832642 
	C630.280640,266.965027 629.456238,267.635651 628.159058,268.690918 
	C629.136719,268.842377 629.750916,268.937531 630.681641,269.511902 
	C630.995789,271.942383 630.993286,273.893585 630.990845,275.844818 
	C603.014099,275.908936 575.037292,275.974701 547.060547,276.034546 
	C544.431152,276.040161 541.403564,275.802673 542.073975,272.330139 
	C542.341370,270.945129 545.220459,269.167816 546.959900,269.112305 
	C556.609619,268.804291 566.284241,268.699310 575.931458,269.047821 
	C586.749084,269.438660 594.264771,264.148438 600.165405,255.901062 
	C602.376038,252.811295 603.907532,249.242126 605.834045,245.941345 
	C611.374268,236.448761 619.257751,229.532471 629.526489,224.795349 
	C630.267822,226.622070 630.659485,228.536667 630.864868,231.124634 
	C623.226990,235.784409 617.000061,241.140762 612.457947,248.316986 
	C608.169067,255.093246 603.970398,261.926636 599.693298,268.797119 
	C610.107666,268.233917 620.514221,265.890015 629.635803,259.223541 
z"/>
<path fill="#F57B40" opacity="1.000000" stroke="none" 
	d="
M631.455444,275.915405 
	C630.993286,273.893585 630.995789,271.942383 630.994568,269.573181 
	C643.480408,269.105072 655.971863,268.939362 668.457031,269.149109 
	C670.043213,269.175751 671.596252,271.167084 673.164612,272.248169 
	C671.576416,273.497009 670.014160,275.788300 668.395874,275.828552 
	C656.243530,276.130585 644.080139,275.988861 631.455444,275.915405 
z"/>
<path fill="#F89447" opacity="1.000000" stroke="none" 
	d="
M635.119690,299.630402 
	C640.535828,300.910950 643.194397,304.774017 643.498901,309.897949 
	C643.821289,315.322937 641.093079,319.306854 635.460815,320.872742 
	C634.990173,318.443512 634.918579,316.460297 635.008545,314.206726 
	C637.454834,311.363220 636.799072,308.918640 634.888794,306.042480 
	C634.994080,303.579620 635.056885,301.605011 635.119690,299.630402 
z"/>
<path fill="#F46D3D" opacity="1.000000" stroke="none" 
	d="
M627.988464,321.078369 
	C622.926575,319.811615 620.782898,315.978210 620.395996,311.343750 
	C619.962463,306.150787 622.378235,302.174866 627.634705,300.356262 
	C628.407349,302.682648 628.811951,304.588074 629.017517,306.760620 
	C626.093689,309.672638 626.842590,312.133850 629.057007,314.901764 
	C628.596130,317.222260 628.292297,319.150330 627.988464,321.078369 
z"/>
<path fill="#F57B40" opacity="1.000000" stroke="none" 
	d="
M628.264343,321.333374 
	C628.292297,319.150330 628.596130,317.222260 629.449097,315.032104 
	C631.614563,314.672363 633.230835,314.574738 634.847046,314.477112 
	C634.918579,316.460297 634.990173,318.443512 635.100098,320.930054 
	C632.939087,321.485077 630.739624,321.536713 628.264343,321.333374 
z"/>
<path fill="#F57B40" opacity="1.000000" stroke="none" 
	d="
M629.216492,306.493500 
	C628.811951,304.588074 628.407349,302.682648 627.995972,300.350037 
	C630.157471,299.688202 632.325867,299.453522 634.806946,299.424622 
	C635.056885,301.605011 634.994080,303.579620 634.502197,305.893188 
	C632.454224,306.319275 630.835327,306.406372 629.216492,306.493500 
z"/>
<path fill="#F57B40" opacity="1.000000" stroke="none" 
	d="
M742.650452,395.103363 
	C741.926636,392.830139 741.549500,390.657959 741.172363,388.485840 
	C742.868835,388.195435 745.112732,387.115997 746.121826,387.816223 
	C747.357849,388.673859 748.539917,391.570404 747.968628,392.590332 
	C747.201416,393.960144 744.734436,394.377930 742.650452,395.103363 
z"/>
<path fill="#F46D3D" opacity="1.000000" stroke="none" 
	d="
M744.887939,286.301880 
	C740.783020,286.379547 736.647644,286.766754 732.589905,286.366302 
	C731.178101,286.226959 729.958435,284.139862 728.651001,282.942383 
	C729.983337,281.770111 731.212402,279.769073 732.668213,279.587708 
	C736.393066,279.123566 740.218811,279.469421 744.501953,279.958496 
	C744.962463,282.384369 744.925232,284.343109 744.887939,286.301880 
z"/>
<path fill="#FBB251" opacity="1.000000" stroke="none" 
	d="
M745.330017,286.470978 
	C744.925232,284.343109 744.962463,282.384369 744.942139,280.065765 
	C748.649048,279.569794 752.446350,279.098877 756.161743,279.462921 
	C757.640564,279.607849 758.938416,281.600311 760.318665,282.751648 
	C758.925598,284.064911 757.679504,286.246368 756.109192,286.512238 
	C752.752502,287.080505 749.227905,286.657227 745.330017,286.470978 
z"/>
<path fill="#FFFEFE" opacity="1.000000" stroke="none" 
	d="
M629.796143,258.958801 
	C620.514221,265.890015 610.107666,268.233917 599.693298,268.797119 
	C603.970398,261.926636 608.169067,255.093246 612.457947,248.316986 
	C617.000061,241.140762 623.226990,235.784409 630.895142,231.552063 
	C632.512939,230.835663 633.914246,230.365189 635.675049,229.773987 
	C636.339417,234.432510 638.153870,237.953354 644.087341,237.624130 
	C641.694153,246.667191 635.640320,252.560516 629.796143,258.958801 
z"/>
<path fill="#FFFEFE" opacity="1.000000" stroke="none" 
	d="
M629.017517,306.760620 
	C630.835327,306.406372 632.454224,306.319275 634.459717,306.381439 
	C636.799072,308.918640 637.454834,311.363220 635.008545,314.206726 
	C633.230835,314.574738 631.614563,314.672363 629.606201,314.639648 
	C626.842590,312.133850 626.093689,309.672638 629.017517,306.760620 
z"/>
</svg>